<svg width="64" height="64" viewBox="0 0 64 64" fill="none" xmlns="http://www.w3.org/2000/svg">
<g filter="url(#filter0_d_4223_491)">
<circle cx="29.189" cy="29.7178" r="23.8804" fill="white" fill-opacity="0.1"/>
<path d="M35.0251 23.8804H35.0358M23.881 19.1043H34.4945C37.4253 19.1043 39.8012 21.4803 39.8012 24.4111V35.0246C39.8012 37.9554 37.4253 40.3313 34.4945 40.3313H23.881C20.9501 40.3313 18.5742 37.9554 18.5742 35.0246V24.4111C18.5742 21.4803 20.9501 19.1043 23.881 19.1043ZM33.4331 29.0492C33.5641 29.9325 33.4132 30.8346 33.002 31.6272C32.5907 32.4198 31.94 33.0626 31.1423 33.4641C30.3447 33.8655 29.4408 34.0053 28.5592 33.8634C27.6775 33.7215 26.8631 33.3053 26.2317 32.6739C25.6003 32.0424 25.184 31.228 25.0422 30.3464C24.9003 29.4648 25.04 28.5609 25.4415 27.7632C25.843 26.9656 26.4857 26.3149 27.2783 25.9036C28.0709 25.4923 28.9731 25.3415 29.8564 25.4724C30.7574 25.606 31.5915 26.0259 32.2356 26.67C32.8797 27.314 33.2995 28.1482 33.4331 29.0492Z" stroke="white" stroke-width="2.1227" stroke-linecap="round" stroke-linejoin="round"/>
</g>
<defs>
<filter id="filter0_d_4223_491" x="0.00184512" y="9.29832e-06" width="63.682" height="63.681" filterUnits="userSpaceOnUse" color-interpolation-filters="sRGB">
<feFlood flood-opacity="0" result="BackgroundImageFix"/>
<feColorMatrix in="SourceAlpha" type="matrix" values="0 0 0 0 0 0 0 0 0 0 0 0 0 0 0 0 0 0 127 0" result="hardAlpha"/>
<feOffset dx="2.65337" dy="2.1227"/>
<feGaussianBlur stdDeviation="3.98006"/>
<feComposite in2="hardAlpha" operator="out"/>
<feColorMatrix type="matrix" values="0 0 0 0 0 0 0 0 0 0 0 0 0 0 0 0 0 0 0.31 0"/>
<feBlend mode="normal" in2="BackgroundImageFix" result="effect1_dropShadow_4223_491"/>
<feBlend mode="normal" in="SourceGraphic" in2="effect1_dropShadow_4223_491" result="shape"/>
</filter>
</defs>
</svg>
