<svg width="64" height="64" viewBox="0 0 64 64" fill="none" xmlns="http://www.w3.org/2000/svg">
<g filter="url(#filter0_d_4223_499)">
<circle cx="29.189" cy="29.7178" r="23.8804" fill="white" fill-opacity="0.1"/>
<path d="M27.8431 26.4972C24.2624 26.3244 21.7735 27.601 20.3762 30.3271C18.2804 34.4161 20.0126 41.107 27.0044 41.107C33.9963 41.107 34.1985 34.3506 34.1985 33.6428C34.1985 33.171 34.1985 30.5326 34.1985 25.7278C35.694 26.675 36.9549 27.2451 37.9812 27.4383C39.0075 27.6314 39.6599 27.7171 39.9385 27.6951V23.7575C38.9892 23.643 38.1684 23.4249 37.4758 23.1031C36.437 22.6204 34.3771 21.2807 34.3771 19.3172C34.3785 19.3268 34.3785 18.8204 34.3771 17.7978H30.0489C30.036 27.415 30.036 32.6966 30.0489 33.6428C30.0683 35.0621 28.9672 37.0475 26.7349 37.0475C24.5025 37.0475 23.4014 35.0637 23.4014 33.7842C23.4014 33.0009 23.6705 31.8655 24.7827 31.0248C25.4423 30.5261 26.3577 30.3271 27.8431 30.3271C27.8431 29.8676 27.8431 28.591 27.8431 26.4972Z" fill="white"/>
</g>
<defs>
<filter id="filter0_d_4223_499" x="0.00184512" y="9.29832e-06" width="63.682" height="63.681" filterUnits="userSpaceOnUse" color-interpolation-filters="sRGB">
<feFlood flood-opacity="0" result="BackgroundImageFix"/>
<feColorMatrix in="SourceAlpha" type="matrix" values="0 0 0 0 0 0 0 0 0 0 0 0 0 0 0 0 0 0 127 0" result="hardAlpha"/>
<feOffset dx="2.65337" dy="2.1227"/>
<feGaussianBlur stdDeviation="3.98006"/>
<feComposite in2="hardAlpha" operator="out"/>
<feColorMatrix type="matrix" values="0 0 0 0 0 0 0 0 0 0 0 0 0 0 0 0 0 0 0.31 0"/>
<feBlend mode="normal" in2="BackgroundImageFix" result="effect1_dropShadow_4223_499"/>
<feBlend mode="normal" in="SourceGraphic" in2="effect1_dropShadow_4223_499" result="shape"/>
</filter>
</defs>
</svg>
