<svg width="64" height="64" viewBox="0 0 64 64" fill="none" xmlns="http://www.w3.org/2000/svg">
<g filter="url(#filter0_d_4223_494)">
<circle cx="29.189" cy="29.7178" r="23.8804" fill="white" fill-opacity="0.1"/>
<path d="M40.7367 29.0766C40.7411 30.7693 40.3456 32.4391 39.5825 33.9499C38.6776 35.7605 37.2866 37.2833 35.5651 38.3479C33.8436 39.4125 31.8598 39.9767 29.8358 39.9775C28.1431 39.9819 26.4733 39.5865 24.9624 38.8233L17.6523 41.26L20.089 33.9499C19.3259 32.4391 18.9304 30.7693 18.9348 29.0766C18.9356 27.0525 19.4999 25.0687 20.5645 23.3472C21.629 21.6258 23.1519 20.2347 24.9624 19.3299C26.4733 18.5667 28.1431 18.1712 29.8358 18.1756H30.477C33.1501 18.3231 35.6749 19.4514 37.5679 21.3444C39.461 23.2375 40.5892 25.7622 40.7367 28.4353V29.0766Z" stroke="white" stroke-width="2.1227" stroke-linecap="round" stroke-linejoin="round"/>
<g clip-path="url(#clip0_4223_494)">
<path d="M34.9959 32.198L34.9924 33.8563C34.9927 34.0103 34.9608 34.1626 34.8988 34.3035C34.8369 34.4445 34.7461 34.5709 34.6325 34.6747C34.5188 34.7786 34.3847 34.8575 34.2388 34.9065C34.0928 34.9555 33.9382 34.9735 33.7849 34.9593C32.0843 34.7709 30.4516 34.1862 29.018 33.2522C27.6842 32.4006 26.5542 31.2658 25.7083 29.9284C24.7772 28.4843 24.1993 26.8412 24.0215 25.1322C24.008 24.9793 24.0265 24.8252 24.0758 24.6799C24.1251 24.5345 24.2041 24.401 24.3078 24.2879C24.4115 24.1748 24.5377 24.0845 24.6782 24.0227C24.8187 23.961 24.9706 23.9292 25.1241 23.9294L26.7824 23.9329C27.0507 23.9309 27.3106 24.0264 27.5136 24.2018C27.7166 24.3772 27.849 24.6204 27.886 24.8861C27.9548 25.4169 28.0835 25.9383 28.2696 26.4402C28.3436 26.6382 28.3592 26.8533 28.3147 27.0599C28.2702 27.2666 28.1673 27.4561 28.0184 27.6061L27.3149 28.3066C28.0988 29.6922 29.2423 30.8405 30.6245 31.6304L31.3281 30.9298C31.4787 30.7815 31.6686 30.6795 31.8755 30.6359C32.0823 30.5922 32.2973 30.6088 32.495 30.6836C32.9961 30.8718 33.5169 31.0027 34.0475 31.0738C34.3159 31.1122 34.5609 31.248 34.7357 31.4553C34.9106 31.6626 35.0032 31.9269 34.9959 32.198Z" fill="white" stroke="white" stroke-width="0.530675" stroke-linecap="round" stroke-linejoin="round"/>
</g>
</g>
<defs>
<filter id="filter0_d_4223_494" x="0.00184512" y="9.29832e-06" width="63.682" height="63.681" filterUnits="userSpaceOnUse" color-interpolation-filters="sRGB">
<feFlood flood-opacity="0" result="BackgroundImageFix"/>
<feColorMatrix in="SourceAlpha" type="matrix" values="0 0 0 0 0 0 0 0 0 0 0 0 0 0 0 0 0 0 127 0" result="hardAlpha"/>
<feOffset dx="2.65337" dy="2.1227"/>
<feGaussianBlur stdDeviation="3.98006"/>
<feComposite in2="hardAlpha" operator="out"/>
<feColorMatrix type="matrix" values="0 0 0 0 0 0 0 0 0 0 0 0 0 0 0 0 0 0 0.31 0"/>
<feBlend mode="normal" in2="BackgroundImageFix" result="effect1_dropShadow_4223_494"/>
<feBlend mode="normal" in="SourceGraphic" in2="effect1_dropShadow_4223_494" result="shape"/>
</filter>
<clipPath id="clip0_4223_494">
<rect width="13.2669" height="13.2669" fill="white" transform="translate(22.8555 22.819) rotate(0.121585)"/>
</clipPath>
</defs>
</svg>
